<?xml version="1.0" encoding="utf-8"?>
<!DOCTYPE svg PUBLIC "-//W3C//DTD SVG 1.1//EN" "http://www.w3.org/Graphics/SVG/1.1/DTD/svg11.dtd">
<svg version="1.1" xmlns="http://www.w3.org/2000/svg" xmlns:xlink="http://www.w3.org/1999/xlink" x="0px" y="0px" width="500px"
	 height="500px" viewBox="0 0 500 500" enable-background="new 0 0 500 500" xml:space="preserve">
<g id="Capa_1" display="none">
	<g display="inline">
		<path fill="#444444" d="M256.706,200.872c-11.473,0-22.028,7.544-29.581,21.728c-7.24,13.579-12.069,31.391-12.069,45.27
			c0,15.994,6.039,24.443,17.503,24.443c11.164-0.004,21.732-8.754,29.581-24.147c7.24-14.184,12.065-32.583,12.065-46.476
			C274.205,209.321,267.266,200.872,256.706,200.872z"/>
		<path fill="#444444" d="M23.5,24.857v448h448v-448H23.5z M352.986,299.562c-15.693,15.689-36.216,24.739-56.444,24.739
			c-11.769,0-21.419-4.529-25.953-11.769c-1.514-2.415-1.805-3.924-2.71-9.359c-11.473,13.279-23.542,19.013-40.441,19.013
			c-29.877,0-48.89-22.333-48.89-56.739c0-51.005,33.501-93.256,73.642-93.256c16.894,0,25.348,4.225,33.506,16.903l3.02-10.564
			h35.594c-1.801,6.039-7.244,24.447-8.749,31.082l-18.113,67.003c-0.9,3.315-1.21,6.335-1.21,9.054c0,4.829,2.71,7.549,7.849,7.549
			c5.73,0,12.974-3.02,19.013-7.849c14.788-11.469,24.443-33.802,24.443-57.03c0-27.763-12.974-51.91-34.707-65.489
			c-13.579-8.145-32.592-12.678-54.024-12.678c-63.679,0-108.353,42.255-108.353,102.014c0,57.949,40.136,95.971,100.8,95.971
			c15.693,0,32.292-2.41,46.184-6.626c11.769-3.633,19.318-7.244,33.802-15.994l18.399,26.557
			c-16.298,9.659-23.542,13.283-37.726,17.503c-20.518,6.33-42.246,9.645-63.974,9.645c-42.556,0-75.752-12.065-99.595-35.916
			c-22.633-22.333-35.007-54.324-35.007-89.331c0-37.426,12.678-69.718,36.821-94.165c27.767-27.763,64.288-41.346,111.064-41.346
			c70.323,0,120.427,45.266,120.427,108.344C381.654,255.201,371.39,281.153,352.986,299.562z"/>
	</g>
</g>
<g id="Capa_2" display="none">
	<path display="inline" fill="#444444" d="M360.736,301.748c0,8.412-6.927,15.339-15.339,15.339
		c-8.412,0-15.339-6.927-15.339-15.339s6.927-15.339,15.339-15.339S360.736,293.336,360.736,301.748z M469.1,246.329
		c0,122.714-99.458,222.171-222.171,222.171S24.757,369.042,24.757,246.329S124.215,24.157,246.929,24.157
		S469.1,123.615,469.1,246.329z M400.321,284.924c0-5.938-4.453-10.886-10.391-11.381v-29.194c0-10.886-8.907-19.793-19.793-19.793
		l-26.72-2.474l-23.751-35.627c-0.495-0.495-0.495-0.99-0.99-0.99l0,0c-3.464-4.948-9.401-8.412-16.329-8.412h-49.976h-94.509
		c-9.896,0-18.308,7.422-19.793,17.318H74.733c-4.453,0-7.917,3.464-7.917,7.917l0,0c0,4.453,3.464,7.917,7.917,7.917h72.738
		c0.495,0,0.99,0,0.99,0c3.959,0.495,6.927,3.959,6.927,7.917l0,0c0,4.453-3.464,7.917-7.917,7.917h-9.401H94.526
		c-4.453,0-7.917,3.464-7.917,7.917l0,0c0,4.453,3.464,7.917,7.917,7.917h43.544h35.627c4.453,0,7.917,3.464,7.917,7.917l0,0
		c0,4.453-3.464,7.917-7.917,7.917h-35.627h-20.782c-4.453,0-7.917,3.464-7.917,7.917l0,0c0,4.453,3.464,7.917,7.917,7.917h20.782
		l0,0c-4.948,1.484-8.412,5.938-8.412,10.886v14.35c0,6.433,4.948,11.381,11.381,11.381h16.329
		c3.464,12.865,15.339,22.267,29.194,22.267c13.855,0,25.73-9.401,29.194-22.267h37.111h62.841
		c3.464,12.865,15.339,22.267,29.194,22.267c13.855,0,25.73-9.401,29.194-22.267h13.855c6.433,0,11.381-4.948,11.381-11.381v-13.855
		H400.321z M187.056,286.409c-8.412,0-15.339,6.927-15.339,15.339s6.927,15.339,15.339,15.339c8.412,0,15.339-6.927,15.339-15.339
		S195.468,286.409,187.056,286.409z"/>
</g>
<g id="Capa_3" display="none">
	<path display="inline" fill="#444444" d="M305.34,464.451c118.689-31.803,189.869-154.285,158.067-272.974
		C431.604,72.789,308.571,1.756,189.882,33.559S0.161,188.394,31.963,307.082c12.349,46.088,38.41,84.416,72.652,112.653
		c0.093,0.462,0.2,0.631,0.295,1.101l-27.365,40.952l158.553,10.6l-70.119-142.822l-24.398,36.618
		c-21.796-19.592-38.667-45.25-46.882-75.911c-22.742-84.874,27.119-171.237,111.994-193.979s171.237,27.119,193.979,111.994
		c22.439,83.744-25.875,168.993-108.692,193.094l7.16,64.141C301.185,465.036,303.296,464.999,305.34,464.451z"/>
	<path display="inline" fill="#409A9E" d="M308.276,203.299h-53.336v-8.845c0-9.417-0.616-15.578-1.848-18.483
		c-1.232-2.904-3.873-4.356-7.921-4.357c-3.257,0-5.699,1.254-7.327,3.763c-1.628,2.509-2.442,6.271-2.442,11.288
		c0,8.361,1.672,14.214,5.017,17.559c3.256,3.345,12.85,9.858,28.78,19.539c13.554,8.185,22.795,14.456,27.724,18.813
		c4.929,4.357,9.087,10.518,12.476,18.483c3.388,7.965,5.083,17.889,5.083,29.77c0,19.011-4.577,33.929-13.73,44.755
		c-9.153,10.826-22.883,17.515-41.19,20.067v20.067h-24.556v-20.727c-14.258-1.408-26.712-6.887-37.361-16.436
		c-10.65-9.549-15.974-26.206-15.974-49.969v-10.43h53.336v13.07c0,14.346,0.55,23.257,1.65,26.734
		c1.1,3.477,3.762,5.215,7.987,5.215c3.608,0,6.293-1.21,8.053-3.631c1.76-2.42,2.64-6.007,2.64-10.76
		c0-11.97-0.836-20.529-2.508-25.678c-1.672-5.149-7.393-10.759-17.162-16.832c-16.282-10.209-27.35-17.712-33.203-22.509
		c-5.853-4.797-10.914-11.552-15.182-20.265c-4.269-8.713-6.403-18.571-6.403-29.572c0-15.93,4.511-28.428,13.532-37.493
		c9.021-9.065,22.553-14.654,40.596-16.766v-17.03h24.556v17.03c16.458,2.113,28.78,7.635,36.965,16.568
		c8.185,8.933,12.278,21.277,12.278,37.031C308.804,195.466,308.628,198.811,308.276,203.299L308.276,203.299z"/>
</g>
<g id="Capa_4" display="none">
	<path display="inline" fill="#444444" d="M179.887,40.823h-58.818c-5.837,0-10.858,3.116-13.413,8.366
		c-8.665,17.5-26.507,63.044-27.494,141.614c-1.115,92.763,92.112,229.607,180.873,252.224
		c76.169,19.405,124.786,13.936,143.914,10.148c5.736-1.147,10.164-5.149,11.583-10.836l12.853-53.243
		c1.707-7.053-1.377-14.187-7.902-17.372l-85.192-41.473c-7.022-3.399-15.452-0.891-19.453,5.784
		c-12.821,21.454-41.889,29.809-71.864,8.302c-28.278-22.9-61.603-81.665-75.839-113.662c-16.503-36.681,4.759-67.483,28.406-76.111
		c6.952-2.545,10.628-9.593,9.572-16.924L194.65,52.956C193.604,45.812,187.175,40.823,179.887,40.823z"/>
</g>
<g id="Capa_5" display="none">
	<path display="inline" fill="#444444" d="M366.957,161.983c0-87.019-73.271-119.45-119.455-119.45s-119.455,32.431-119.455,119.45
		v80.827h-24.884v207.842h288.673V242.81h-24.884v-80.827H366.957z M265.676,383.287h-36.347l5.938-44.521
		c-6.293-4.039-10.482-11.054-10.482-19.087c0-12.544,10.173-22.717,22.717-22.717s22.717,10.173,22.717,22.717
		c0,8.033-4.189,15.048-10.482,19.087L265.676,383.287z M327.139,242.81H167.87v-80.827c0-77.469,78.837-79.632,79.632-79.632
		s79.632,2.167,79.632,79.632v80.827H327.139z"/>
</g>
<g id="Capa_6" display="none">
	<path display="inline" fill="#444444" d="M408.978,176.254c7.904-10.673,12.747-23.756,12.747-38.066
		c0-35.441-28.747-64.197-64.201-64.197c-10.735,0-20.704,2.881-29.594,7.55c-11.864-32.461-42.928-55.684-79.489-55.684
		c-36.565,0-67.633,23.222-79.489,55.684c-8.889-4.651-18.854-7.55-29.594-7.55c-35.454,0-64.197,28.756-64.197,64.197
		c0,15.857,5.964,30.167,15.476,41.369c-21.847,16.78-35.978,43.098-35.978,72.768c0,49.976,39.957,90.56,89.677,91.725
		c-29.854-27.721-34.401-71.28-34.598-73.341l-1.151-11.999l11.64-3.163c0.654-0.179,16.215-4.342,36.436-4.342
		c20.794,0,38.945,4.243,54.044,12.613c8.974-28.066,30.329-47.785,31.462-48.82l9.624-8.759l9.624,8.759
		c1.143,1.035,22.483,20.754,31.458,48.815c15.09-8.37,33.227-12.608,53.999-12.608c20.203,0,35.75,4.167,36.4,4.346l12.572,3.423
		l-2.24,12.837c-0.354,2.025-8.199,44.908-38.246,72.248c0.721,0.018,1.429,0.099,2.164,0.099c50.719,0,91.833-41.127,91.833-91.833
		C449.356,220.674,433.348,192.765,408.978,176.254z"/>
	<path display="inline" fill="#444444" d="M296.033,278.562c-5.153,3.28-9.673,7.196-13.746,11.394
		c0.027-0.672,0.215-1.29,0.215-1.967c0-34.46-30.709-62.413-30.709-62.413s-30.714,27.954-30.714,62.413
		c0,0.677,0.188,1.295,0.215,1.967c-4.077-4.198-8.594-8.114-13.76-11.394c-35.136-22.371-83.557-9.221-83.557-9.221
		s5.309,49.447,40.459,71.845c25.001,15.919,56.208,13.845,69.65,11.331v110.212c0,5.91,7.532,10.704,13.442,10.704
		c5.919,0,13.442-4.79,13.442-10.704V352.338c13.442,2.581,48.873,5.135,74.466-11.148c35.15-22.398,43.936-71.845,43.936-71.845
		S331.183,256.191,296.033,278.562z"/>
</g>
<g id="Capa_7" display="none">
	<g display="inline">
		<path fill="#444444" d="M172.209,335.65c2.765-0.178,5.596-0.298,8.568-0.298h24.702c-24.536-9.319-44.657-24.872-61.516-45.445
			c0.145-0.315,0.29-0.638,0.435-0.953c3.001,0,6.002,0,9.004,0c11.785,0,23.574,0.008,35.359-0.008
			c1.492-0.008,2.744-0.05,3.486,1.774c6.645,16.258,15.947,30.887,26.696,44.641h20.258c-12.9-13.572-22.886-28.992-30.982-46.179
			c13.675,0,26.849,0,40.168,0c0,15.342,0,30.596,0,46.179h10.749c0.854-0.129,1.72-0.008,2.612-0.008
			c0.734,0,1.455,0.058,2.164,0.141c0-15.632,0-30.907,0-46.311c13.294,0,26.472,0,40.172,0
			c-8.51,18.19-19.209,34.369-33.299,48.633c5.215,3.068,8.722,8.705,8.722,15.28c0,1.87-0.286,3.673-0.812,5.36
			c76.775-11.068,135.004-77.716,134.1-156.825c-0.966-84.693-69.977-154.79-156.75-154.74
			c-87.553,0.05-157.667,71.859-156.502,158.753C100.267,259.862,128.895,308.051,172.209,335.65z M265.698,273.529
			c-0.502,0-1.003-0.087-1.737-0.17c0-20.83,0-41.341,0-62.018c19.4,0,38.626,0,58.449,0c-0.626,6.964-1.011,13.713-1.886,20.395
			c-1.749,13.464-4.979,26.6-9.277,39.467c-0.51,1.521-1.078,2.404-2.989,2.388C294.073,273.496,279.887,273.537,265.698,273.529z
			 M264.036,195.651c0-20.656,0-41.233,0-62.014c0.817-0.075,1.621-0.216,2.413-0.216c13.767-0.012,27.537,0,41.308-0.021
			c1.501-0.004,2.719-0.017,3.345,1.865c6.363,19.197,10.438,38.812,10.985,59.083c0.008,0.303-0.087,0.609-0.211,1.302
			C302.562,195.651,283.415,195.651,264.036,195.651z M289.09,340.865c1.248-1.604,2.015-2.624,2.823-3.627
			c11.321-14.135,20.967-29.299,28.113-46.005c0.415-0.97,1.799-2.168,2.736-2.176c14.703-0.137,29.415-0.087,44.123-0.083
			c0.386,0,0.779,0.149,1.89,0.373C347.721,315.21,322.07,332.881,289.09,340.865z M394.227,233.738
			c-2.715,13.145-7.727,25.494-13.995,37.345c-0.759,1.434-1.385,2.524-3.407,2.508c-15.976-0.112-31.931-0.087-47.907-0.104
			c-0.601,0-1.19-0.112-2.176-0.22c6.45-20.25,10.106-40.777,10.857-61.943c19.943,0,39.6,0,60.148,0
			C396.561,219.01,395.736,226.446,394.227,233.738z M379.69,135.101c9.654,17.684,15.835,36.466,17.361,56.654
			c0.087,1.223,0.008,2.458,0.008,3.876c-19.86,0-39.517,0-59.452,0c-0.759-21.162-4.419-41.702-10.881-61.993
			c1.322-0.079,2.226-0.174,3.134-0.174c15.458-0.021,30.895-0.075,46.349,0.021C377.397,133.492,379.188,134.176,379.69,135.101z
			 M368.365,117.006c-0.129,0.332-0.257,0.663-0.394,0.995c-1.223,0-2.446,0-3.669,0c-13.559,0-27.119-0.004-40.674,0.004
			c-1.467,0-2.769,0.116-3.523-1.724c-7.283-17.817-17.721-33.705-29.801-48.587c-0.257-0.315-0.448-0.684-0.995-1.521
			C322.037,73.986,347.622,91.766,368.365,117.006z M263.932,63.246c9.824,4.983,36.317,41.287,39.72,54.54
			c-13.228,0-26.401,0-39.72,0C263.932,99.484,263.932,81.382,263.932,63.246z M182.929,273.487
			c-15.653,0.025-31.309,0.075-46.966-0.025c-1.169-0.008-2.889-0.808-3.407-1.766c-9.435-17.319-15.495-35.708-17.207-55.431
			c-0.099-1.144-0.112-2.292-0.133-3.441c-0.008-0.415,0.075-0.825,0.133-1.467c19.69,0,39.351,0,59.402,0
			c0.746,21.17,4.394,41.623,10.84,61.864C184.483,273.342,183.704,273.487,182.929,273.487z M248.379,273.272
			c-0.792,0.087-1.583,0.257-2.371,0.257c-13.874,0.017-27.74-0.008-41.615,0.041c-1.642,0.008-2.636-0.29-3.217-2.064
			c-6.214-18.799-10.214-38.004-10.898-57.844c-0.025-0.705,0.079-1.422,0.133-2.326c19.267,0,38.419,0,57.968,0
			C248.379,232.026,248.379,252.529,248.379,273.272z M248.366,195.663c-19.379,0-38.518,0-58.275,0
			c0.365-5.294,0.539-10.454,1.115-15.57c1.666-14.956,4.966-29.56,9.729-43.841c0.688-2.06,1.53-2.927,3.872-2.906
			c13.559,0.133,27.114,0.062,40.674,0.07c0.92,0,1.824,0.104,2.893,0.17C248.366,154.277,248.366,174.783,248.366,195.663z
			 M248.296,62.952c0,18.339,0,36.487,0,54.842c-13.199,0-26.368,0-39.596,0C211.855,105.142,235.164,72.842,248.296,62.952z
			 M222.947,66.164c-4.514,6.131-8.759,11.665-12.759,17.377c-7.072,10.102-13.049,20.83-17.775,32.23
			c-0.647,1.554-1.38,2.272-3.163,2.259c-14.392-0.066-28.785-0.033-43.182-0.046c-0.597,0-1.19-0.124-2.599-0.282
			C164.619,91.749,190.27,74.069,222.947,66.164z M116.065,184.239c2.334-17.24,8.05-33.378,16.25-48.662
			c0.497-0.924,1.724-2.064,2.62-2.073c16.689-0.124,33.382-0.087,50.705-0.087c-6.438,20.457-10.189,41.034-10.906,62.242
			c-19.893,0-39.472,0-59.663,0C115.406,191.783,115.559,187.986,116.065,184.239z"/>
	</g>
	<g display="inline">
		<g>
			<path fill="#444444" d="M332.122,344.119c-10.89,5.903-22.546,10.566-34.804,13.829c-5.198,5.803-10.015,11.474-12.884,15.553
				h21.481L332.122,344.119z"/>
		</g>
		<g>
			<path fill="#444444" d="M405.345,344.55c0-7.893-6.342-14.297-14.16-14.297c-4.025,0-7.644,1.7-10.226,4.419h-0.008l-0.323,0.323
				c-2.359,1.621-3.797,3.354-3.797,3.354l-23.359,23.748l-16.324,16.299l-132.89,0.099c-19.002,0-9.7-6.525-9.7-6.525
				s60.177,0,67.253,0c1.53,0,2.864-0.373,4.058-1.003c6.471-2.338,11.109-8.564,11.109-15.91c0-9.343-7.503-16.718-16.743-16.718
				c-0.833,0-1.65-0.112-2.458,0.008h-73.84c-61.939,0-74.325,42.464-74.325,42.464l-44.243,65.483h107.844
				c8.025-24.022,28.424-26.248,28.424-26.248h111.488c21.68,0,35.397-10.915,35.397-10.915l4.493-4.655l48.032-49.623l-0.025-0.033
				c1.111-1.078,2.031-2.338,2.744-3.731c1.293-2.243,1.679-4.162,1.538-5.783C405.324,345.06,405.345,344.807,405.345,344.55z"/>
		</g>
		<g>
			<path fill="#444444" d="M334.166,373.314l30.485-31.301l-0.017-0.017c1.521-1.488,2.475-3.569,2.475-5.878
				c0.004-4.523-3.623-8.191-8.092-8.191c-2.305,0-4.377,0.966-5.845,2.529l-0.008-0.008c0,0-33.171,31.347-41.217,42.883
				L334.166,373.314z"/>
		</g>
	</g>
</g>
<g id="Capa_8" display="none">
	<g display="inline">
		<polygon fill="#444444" points="314.446,296.493 307.351,303.588 293.449,317.416 286.493,324.372 293.449,331.327 
			307.351,345.299 412.048,450 440,422.048 		"/>
		<path fill="#444444" d="M293.449,290.963c5.105-5.887,9.788-12.13,13.902-18.798c13.264-21.353,20.923-46.533,20.923-73.491
			c0-27.027-7.664-52.212-20.923-73.56c-4.114-6.669-8.797-12.912-13.902-18.798C267.838,77.303,230.385,59,188.674,59
			C111.564,59,49,121.564,49,198.674s62.564,139.6,139.674,139.6C230.385,338.274,267.838,319.971,293.449,290.963z
			 M188.674,310.326c-61.717,0-111.726-50.009-111.726-111.652c0-61.717,50.009-111.726,111.726-111.726
			c48.023,0,88.953,30.289,104.775,72.852c4.466,12.06,6.951,25.18,6.951,38.874c0,13.62-2.481,26.744-6.951,38.805
			C277.626,280.037,236.697,310.326,188.674,310.326z"/>
	</g>
</g>
<g id="Capa_9" display="none">
	<path display="inline" fill="#444444" d="M244.992,459.357c-78.171,0-141.776-63.6-141.776-141.776
		c0-104.198,71.789-201.823,114.579-250.748c5.338-6.096,10.235-11.472,14.525-16.049l12.773-12.428l12.958,12.866
		c4.109,4.395,8.858,9.599,14.259,15.766c15.059,17.29,37.275,44.799,57.652,77.721c36.816,59.483,55.909,116.449,56.759,169.33
		l0.063,3.351c0,17.939-3.259,35.28-9.67,51.728C355.698,423.947,303.835,459.357,244.992,459.357z M244.983,67.962
		c-3.347,3.629-7.233,7.927-11.392,12.685c-40.854,46.71-109.393,139.591-109.393,236.939c0,66.606,54.191,120.793,120.793,120.793
		c50.145,0,94.333-30.177,112.58-76.891c5.46-14.002,8.235-28.775,8.235-43.906l-0.063-3.187
		c-0.792-49.068-18.831-102.429-53.627-158.645c-19.627-31.727-41.077-58.279-55.61-74.967
		C252.191,75.851,248.301,71.549,244.983,67.962z"/>
	<path display="inline" d="M187.686,311.553"/>
	<path display="inline" fill="#444444" d="M350.031,315.935c0,13.144-2.396,26.001-7.149,38.176
		c-15.876,40.605-54.288,66.851-97.891,66.851c-57.896,0-105.018-47.106-105.018-105.027c0,0,42.1-19.69,105.04,0
		C307.948,335.621,350.031,315.935,350.031,315.935z"/>
</g>
<g id="Capa_10" display="none">
	<g display="inline">
		<path fill="#444444" d="M354.483,373.85c-63.708,55.566-158.378,53.878-220.202-3.97
			c-56.588-52.945-68.031-136.712-30.121-202.088l3.537,15.081c0.967,4.122,4.636,6.903,8.697,6.903
			c0.675,0,1.365-0.081,2.046-0.237c4.807-1.129,7.79-5.935,6.661-10.742l-8.263-35.23c-0.03-0.141-0.101-0.262-0.136-0.403
			c-0.091-0.307-0.191-0.605-0.312-0.902c-0.106-0.257-0.212-0.504-0.338-0.741c-0.141-0.277-0.297-0.539-0.469-0.796
			c-0.146-0.227-0.307-0.448-0.474-0.66c-0.191-0.242-0.403-0.474-0.625-0.695c-0.191-0.197-0.388-0.378-0.595-0.554
			c-0.126-0.106-0.232-0.237-0.368-0.338c-0.126-0.101-0.267-0.156-0.398-0.247c-0.217-0.141-0.433-0.272-0.66-0.398
			c-0.292-0.166-0.59-0.317-0.892-0.438c-0.222-0.096-0.448-0.171-0.675-0.247c-0.317-0.106-0.635-0.197-0.962-0.267
			c-0.242-0.045-0.494-0.081-0.741-0.106c-0.322-0.04-0.64-0.066-0.962-0.071c-0.257,0-0.514,0.015-0.776,0.035
			c-0.328,0.025-0.65,0.06-0.972,0.121c-0.126,0.02-0.247,0.02-0.373,0.05l-35.23,8.248c-4.807,1.124-7.79,5.93-6.666,10.737
			c1.124,4.807,5.935,7.775,10.737,6.666l13.418-3.139c-41.649,72.415-28.871,164.964,33.708,223.527
			c35.129,32.857,79.816,49.378,124.554,49.378c42.556,0,85.167-14.955,119.611-45.005c3.713-3.24,4.096-8.893,0.857-12.607
			C363.855,370.988,358.206,370.605,354.483,373.85z"/>
		<path fill="#444444" d="M246.642,373.921c3.29,0,5.961-2.665,5.961-5.961v-36.651c33.985-12.491,54.467-32.015,60.811-58.11
			c15.499-63.688-59.284-142.466-62.468-145.787c-0.02-0.015-0.035-0.02-0.055-0.035c-0.025-0.03-0.06-0.055-0.091-0.086
			c-0.015-0.015-0.015-0.03-0.03-0.045c-0.191-0.181-0.433-0.252-0.64-0.408c-0.212-0.151-0.423-0.307-0.65-0.433
			c-0.181-0.101-0.322-0.267-0.509-0.338c-0.035-0.015-0.076-0.015-0.116-0.03c-0.327-0.131-0.685-0.146-1.028-0.217
			c-0.378-0.081-0.746-0.212-1.129-0.217c-0.02,0-0.035-0.01-0.055-0.01s-0.04,0.01-0.066,0.01
			c-0.333,0.005-0.655,0.131-0.988,0.191c-0.398,0.071-0.791,0.091-1.169,0.242c-0.035,0.015-0.081,0.015-0.116,0.03
			c-0.156,0.066-0.272,0.207-0.423,0.287c-0.242,0.126-0.448,0.292-0.67,0.448c-0.227,0.161-0.494,0.247-0.7,0.443
			c-0.015,0.015-0.02,0.035-0.035,0.05c-0.025,0.03-0.055,0.055-0.086,0.086c-0.015,0.015-0.035,0.02-0.05,0.035
			c-3.189,3.32-77.972,82.099-62.479,145.787c6.354,26.1,26.836,45.624,60.816,58.11v36.651
			C240.686,371.255,243.352,373.921,246.642,373.921z M301.835,270.378c-5.099,20.956-21.736,37.059-49.232,48.098v-22.26
			l31.945-31.945c2.328-2.328,2.328-6.097,0-8.43c-2.328-2.328-6.097-2.328-8.425,0l-23.52,23.52v-45.76l18.209-18.22
			c2.328-2.328,2.328-6.097,0-8.425c-2.328-2.328-6.097-2.328-8.425,0l-9.785,9.79v-69.366
			C272.283,171.102,312.552,226.35,301.835,270.378z M191.449,270.393c-10.712-43.977,29.546-99.265,49.232-123.007v57.586
			l-9.785-9.785c-2.328-2.328-6.097-2.328-8.425,0s-2.328,6.097,0,8.425l18.209,18.209v45.766l-23.515-23.515
			c-2.328-2.328-6.097-2.328-8.425,0c-2.328,2.328-2.328,6.097,0,8.425l31.94,31.94v34.041
			C213.191,307.447,196.553,291.343,191.449,270.393z"/>
		<path fill="#444444" d="M430.787,341.346c-1.134-4.807-5.93-7.77-10.742-6.666l-13.947,3.265
			c39.84-71.986,26.483-163.598-35.033-221.144c-67.033-62.73-170.672-65.738-241.066-7.009c-3.789,3.159-4.303,8.797-1.139,12.586
			c3.164,3.789,8.802,4.303,12.591,1.139c63.481-52.956,156.937-50.235,217.41,6.339c55.319,51.751,67.346,133.996,31.794,198.838
			l-3.366-14.345c-1.124-4.802-5.925-7.805-10.742-6.656c-4.807,1.129-7.785,5.935-6.656,10.742l8.268,35.23
			c0.02,0.081,0.081,0.146,0.096,0.227c0.237,0.872,0.569,1.723,1.068,2.499c0.055,0.096,0.131,0.171,0.197,0.267
			c0.453,0.655,0.998,1.26,1.643,1.794c0.106,0.091,0.186,0.181,0.292,0.262c0.06,0.045,0.106,0.096,0.151,0.136
			c0.438,0.312,0.932,0.484,1.406,0.715c0.338,0.161,0.65,0.388,1.008,0.514c0.927,0.312,1.879,0.484,2.832,0.484
			c0.675,0,1.355-0.076,2.041-0.232l35.225-8.248C428.923,350.955,431.906,346.148,430.787,341.346z"/>
	</g>
</g>
<g id="Capa_11">
	<g>
		<path fill="#444444" d="M342.235,419.048c-49.269,22.557-85.207,9.079-126.817-6.53l-7.213-2.696
			c-43.856-16.306-75.679-30.183-75.993-30.313c-18.459-6.855-28.037-27.924-21.003-46.823c3.394-9.136,10.121-16.386,18.943-20.425
			c8.822-4.039,18.708-4.39,27.84-0.994l32.014,12.66L94.758,164.048c-0.122-0.203-0.234-0.416-0.334-0.634
			c-7.91-17.277-1.709-35.882,14.428-43.27c9.518-4.358,27.622-7.973,41.896,16.798c4.034,6.996,19.737,29.73,35.416,52.103
			l-35.608-83.292c-7.192-15.709-0.677-33.724,14.903-40.857c15.297-7.004,32.969-0.062,40.232,15.8l26.047,56.891l-8.43-31.993
			c-4.782-18.142,1.632-33.711,16.734-40.625c6.992-3.201,14.53-3.328,21.217-0.362c7.933,3.52,14.037,10.938,17.177,20.881
			c2.081,6.585,18.544,53.39,31.418,89.879l-2.915-50.807c-0.931-16.234,5.474-28.724,17.574-34.264
			c9.716-4.448,25.261,0.783,31.519,14.451c4.417,9.647,6.812,28.759,9.845,52.958c2.945,23.495,6.286,50.129,12.148,71.805
			c1.297,4.808,2.986,10.302,4.832,16.32C397.381,293.212,424.429,381.416,342.235,419.048z M135.703,324.386
			c-5.581,2.555-9.842,7.151-11.994,12.947c-4.468,12.013,1.588,25.388,13.495,29.816c0.657,0.271,32.165,14.004,75.648,30.178
			l7.247,2.705c40.427,15.158,72.355,27.139,116.584,6.889c71.573-32.77,48.613-107.636,33.422-157.184
			c-1.895-6.167-3.624-11.813-4.957-16.752c-6.106-22.571-9.503-49.692-12.503-73.627c-2.663-21.224-5.172-41.277-8.735-49.061
			c-3.162-6.907-10.869-9.24-13.844-7.878c-9.356,4.284-10.165,15.233-9.813,21.373l5.601,97.652
			c0.194,3.318-2.109,6.274-5.341,6.913c-3.257,0.66-6.495-1.181-7.601-4.312c-1.779-5.027-43.666-123.39-47.186-134.547
			c-1.943-6.155-5.547-10.791-9.871-12.708c-3.234-1.438-6.687-1.333-10.255,0.301c-12.423,5.688-11.215,18.172-9.388,25.109
			l28.157,106.879c0.882,3.346-0.902,6.817-4.202,7.971c-3.262,1.171-6.872-0.349-8.311-3.493L193.57,86.25
			c-4.219-9.214-13.916-13.183-22.557-9.227c-8.782,4.021-12.409,14.271-8.259,23.336l60.367,141.203
			c1.341,3.131,0.106,6.766-2.861,8.433c-3.016,1.635-6.719,0.828-8.695-1.939c-2.583-3.623-63.395-88.878-72.37-104.455
			c-9.116-15.811-17.65-14.602-24.796-11.33c-9.437,4.321-12.696,14.681-7.998,25.284l105.07,176.358
			c1.461,2.455,1.202,5.561-0.649,7.733c-1.843,2.168-4.872,2.93-7.527,1.882l-50.087-19.804
			C147.543,321.609,141.28,321.832,135.703,324.386z"/>
	</g>
</g>
</svg>
